HIERARCHY
ROOT Hips
{
	OFFSET 0.00 0.00 0.00
	CHANNELS 6 Xposition Yposition Zposition Yrotation Xrotation Zrotation
	JOINT LHipJoint
	{
		OFFSET	0.0000	0.0000	0.0000
		CHANNELS 3 Yrotation Xrotation Zrotation
		JOINT LeftUpLeg
		{
			OFFSET	1.0138	-0.0809	-0.0827
			CHANNELS 3 Yrotation Xrotation Zrotation
			JOINT LeftLeg
			{
				OFFSET	0.4110	-3.9095	0.3245
				CHANNELS 3 Yrotation Xrotation Zrotation
				JOINT LeftFoot
				{
					OFFSET	0.3810	-4.0555	-0.1470
					CHANNELS 3 Yrotation Xrotation Zrotation
					JOINT LeftToeBase
					{
						OFFSET	0.1396	-0.4462	1.3079
						CHANNELS 3 Yrotation Xrotation Zrotation
						End Site
						{
							OFFSET 0.0161 -0.0248 0.1809
						}
					}
				}
			}
		}
	}
	JOINT LowerBack
	{
		OFFSET	0.0000	0.7977	-0.3873
		CHANNELS 3 Yrotation Xrotation Zrotation
		JOINT Spine
		{
			OFFSET	0.0000	1.4131	0.1715
			CHANNELS 3 Yrotation Xrotation Zrotation
			JOINT Spine1
			{
				OFFSET	0.0000	1.4392	-0.1032
				CHANNELS 3 Yrotation Xrotation Zrotation
				JOINT LeftShoulder
				{
					OFFSET	0.2274	1.0382	0.4032
					CHANNELS 3 Yrotation Xrotation Zrotation
					JOINT LeftArm
					{
						OFFSET	1.4730	-0.2267	-0.0231
						CHANNELS 3 Yrotation Xrotation Zrotation
						JOINT LeftForeArm
						{
							OFFSET	1.6131	-1.8059	0.0081
							CHANNELS 3 Yrotation Xrotation Zrotation
							JOINT LeftHand
							{
								OFFSET	1.2197	-1.2423	1.6317
								CHANNELS 3 Yrotation Xrotation Zrotation
								JOINT LThumb
								{
									OFFSET	0.0109	-0.0753	0.4387
									CHANNELS 3 Yrotation Xrotation Zrotation
									End Site
									{
										OFFSET -0.2090 -0.0868 0.2097
									}
								}
								JOINT LeftFingerBase
								{
									OFFSET	0.1071	-0.1567	0.2607
									CHANNELS 3 Yrotation Xrotation Zrotation
									JOINT LeftHandFinger1
									{
										OFFSET	0.1706	-0.2492	0.6830
										CHANNELS 3 Yrotation Xrotation Zrotation
										End Site
										{
											OFFSET 0.0335 -0.1507 0.2071
										}
									}
								}
							}
						}
					}
				}
				JOINT Neck
				{
					OFFSET	0.0000	1.7498	0.2381
					CHANNELS 3 Yrotation Xrotation Zrotation
					JOINT Neck1
					{
						OFFSET	0.0000	0.5043	0.1959
						CHANNELS 3 Yrotation Xrotation Zrotation
						JOINT Head
						{
							OFFSET	0.0000	0.5044	0.1959
							CHANNELS 3 Yrotation Xrotation Zrotation
							End Site
							{
								OFFSET 0.0000 1.4798 -0.0693
							}
						}
					}
				}
				JOINT RightShoulder
				{
					OFFSET	-0.2274	1.0382	0.4032
					CHANNELS 3 Yrotation Xrotation Zrotation
					JOINT RightArm
					{
						OFFSET	-1.4730	-0.2267	-0.0231
						CHANNELS 3 Yrotation Xrotation Zrotation
						JOINT RightForeArm
						{
							OFFSET	-1.6131	-1.8059	0.0081
							CHANNELS 3 Yrotation Xrotation Zrotation
							JOINT RightHand
							{
								OFFSET	-1.2197	-1.2423	1.6317
								CHANNELS 3 Yrotation Xrotation Zrotation
								JOINT RThumb
								{
									OFFSET	-0.0109	-0.0753	0.4387
									CHANNELS 3 Yrotation Xrotation Zrotation
									End Site
									{
										OFFSET 0.2090 -0.0868 0.2097
									}
								}
								JOINT RightFingerBase
								{
									OFFSET	-0.1071	-0.1567	0.2607
									CHANNELS 3 Yrotation Xrotation Zrotation
									JOINT RightHandFinger1
									{
										OFFSET	-0.1706	-0.2492	0.6830
										CHANNELS 3 Yrotation Xrotation Zrotation
										End Site
										{
											OFFSET -0.0335 -0.1507 0.2071
										}
									}
								}
							}
						}
					}
				}
			}
		}
	}
	JOINT RHipJoint
	{
		OFFSET	0.0000	0.0000	0.0000
		CHANNELS 3 Yrotation Xrotation Zrotation
		JOINT RightUpLeg
		{
			OFFSET	-1.0138	-0.0809	-0.0827
			CHANNELS 3 Yrotation Xrotation Zrotation
			JOINT RightLeg
			{
				OFFSET	-0.4110	-3.9095	0.3245
				CHANNELS 3 Yrotation Xrotation Zrotation
				JOINT RightFoot
				{
					OFFSET	-0.3810	-4.0555	-0.1470
					CHANNELS 3 Yrotation Xrotation Zrotation
					JOINT RightToeBase
					{
						OFFSET	-0.1396	-0.4462	1.3079
						CHANNELS 3 Yrotation Xrotation Zrotation
						End Site
						{
							OFFSET -0.0161 -0.0248 0.1809
						}
					}
				}
			}
		}
	}
}
MOTION
Frames: 14
Frame Time: 0.0333333
-0.1953 7.9953 -0.0033 69.6526 8.1218 -6.4060 0.0000 -0.0000 0.0000 11.9172 -14.1164 -4.9773 113.7445 72.3870 109.4253 6.6255 -0.5568 -6.7269 0.0000 -8.1344 -0.0000 0.0000 -0.0000 0.0000 -3.7789 4.2609 2.0030 -7.2691 8.6783 4.1369 -23.5523 0.9097 -5.0502 -4.0759 23.0577 -5.8078 -14.1445 -14.1671 -0.0665 11.5412 -34.9862 32.2116 19.0588 2.8282 13.0019 3.2362 15.6999 -3.3663 -1.2518 -8.7367 1.2549 -8.9856 -1.3972 1.5671 -6.4142 -1.6992 7.2396 -34.5341 -12.4145 7.6575 -4.6034 3.8732 3.6137 9.6929 24.6084 3.9972 15.2795 -15.3106 -0.2439 -7.3059 30.2060 -25.6176 -14.0764 2.8975 -9.8830 2.7424 20.7796 9.0353 6.0957 -3.1737 2.6162 0.0000 -0.0000 0.0000 3.9397 -23.0657 16.2386 -6.1498 39.1410 -6.5960 2.7369 -24.9533 -6.6552 -0.0000 -1.8970 0.0000 
-0.2877 8.1125 0.0002 70.4015 8.9912 -7.0883 0.0000 -0.0000 0.0000 6.7565 -30.2745 -2.7087 127.7412 69.7729 123.4410 6.1989 -4.5175 -3.6428 0.0000 -5.0372 0.0000 0.0000 -0.0000 0.0000 -2.9260 3.9376 2.3030 -5.6459 7.9772 4.3317 -20.5124 1.5707 -2.3993 -2.0714 32.8289 -6.2044 -16.0748 -16.1006 0.4742 3.0972 -39.3011 23.0221 19.0812 2.8332 13.0267 7.4556 9.3440 1.4068 -2.2102 -7.5801 0.5029 -9.4332 -0.8744 2.0635 -6.8592 -1.1972 7.7630 -35.2457 -12.0924 8.4556 -0.7618 3.4077 2.5215 16.3728 17.1286 7.0909 15.0616 -15.0925 -0.1826 -2.2700 29.6049 -19.0346 -16.0363 2.5921 -8.9076 3.5809 20.4161 9.5697 5.1996 -4.1498 1.8876 0.0000 -0.0000 0.0000 3.3594 -10.3566 14.9808 -2.9078 28.2168 -5.6305 1.9875 -27.3737 -4.1895 -0.0000 -1.0601 0.0000 
-0.3008 8.2328 -0.0354 72.3018 9.4339 -6.4252 0.0000 -0.0000 0.0000 1.6625 -42.8460 -0.4788 120.8465 71.5515 116.5084 5.5175 -7.0459 -1.9828 0.0000 -2.0634 0.0000 0.0000 -0.0000 0.0000 -1.8734 3.5265 2.1628 -3.6076 7.0993 3.8082 -18.8508 1.9308 0.0046 1.1636 41.8894 -3.3033 -19.2447 -19.1519 1.4932 -2.5849 -42.6912 12.6917 18.9756 2.7970 12.8819 11.0809 3.3882 5.5949 -2.9043 -6.7597 -0.0463 -10.2537 -0.0777 2.6042 -7.6695 -0.4185 8.3618 -37.3166 -11.5261 9.6059 2.0669 3.1221 1.1812 18.9464 10.0076 7.9051 16.5995 -16.6166 -0.6318 3.5095 29.4478 -14.1886 -16.5478 1.9336 -7.3130 5.0280 19.0742 10.2442 4.4776 -4.9538 1.3044 0.0000 -0.0000 0.0000 0.2766 -0.6037 12.6356 0.6029 22.6889 -5.1249 0.6372 -19.6800 -2.2359 0.0006 -13.1669 0.0644 
-0.2435 8.3514 -0.1043 75.3675 9.7967 -4.8239 0.0000 -0.0000 0.0000 -2.4619 -50.7414 0.3729 83.0628 74.2077 78.7004 4.3893 -8.9484 -1.3447 -0.0000 -0.0397 0.0000 0.0000 -0.0000 0.0000 -0.5501 3.0333 1.9976 -1.1000 6.0696 2.8768 -18.9271 2.1568 1.7951 6.7410 48.5941 3.6097 -21.7417 -21.4385 2.4042 -4.1299 -42.3530 4.0472 18.9257 2.7854 12.8262 13.4285 -0.4408 8.2025 -3.2354 -6.3735 -0.3096 -11.4648 0.6864 3.0326 -8.8700 0.3306 8.8554 -40.8240 -11.0251 10.7117 3.2556 3.0232 -0.0752 17.7659 4.4221 6.7621 21.5644 -21.2798 -2.3365 9.3570 29.0170 -13.3051 -15.8609 1.0340 -5.3080 6.7842 17.3281 11.0390 3.9574 -5.5426 0.8864 0.0000 -0.0000 0.0000 -3.9992 10.0727 8.4834 5.1854 14.5932 -4.9256 -1.0270 -3.7340 1.4598 -6.0173 -40.6196 18.7713 
-0.1330 8.4235 -0.1793 78.7451 10.3323 -3.0422 0.0000 -0.0000 0.0000 -4.2269 -53.6163 -0.7742 38.5727 65.1572 34.1895 2.7106 -10.7676 -1.5142 0.0000 1.0908 -0.0000 0.0000 -0.0000 0.0000 0.9392 2.4969 1.8426 1.6359 5.0017 2.1819 -20.3758 2.3406 2.6594 13.4736 51.7087 12.5090 -21.3442 -21.0817 2.2530 -4.0252 -36.5093 1.5799 19.1245 2.8592 13.1115 14.4117 -1.3888 8.9537 -3.2277 -6.3824 -0.3034 -12.8349 1.2217 3.2445 -10.2414 0.8457 9.1095 -44.9193 -10.9890 11.3352 2.7898 3.0275 -0.6543 14.1298 1.3005 4.3540 30.8051 -28.8081 -6.4174 11.4038 27.5852 -19.1618 -14.8534 0.3180 -3.6178 7.8983 15.9343 11.5044 3.5953 -5.9574 0.5967 0.0000 -0.0000 0.0000 -7.8621 18.9499 4.0963 6.4825 8.8815 -6.3557 -1.2193 9.3108 4.6716 0.0000 -13.5560 -0.0000 
-0.0191 8.4219 -0.2433 81.0532 10.6514 -2.1339 0.0000 -0.0000 0.0000 -3.6073 -51.9992 -2.4531 19.1466 49.3991 15.2019 1.1963 -11.0440 -2.3104 -0.0000 1.4954 -0.0000 0.0000 -0.0000 0.0000 2.1516 2.0886 1.7507 3.8812 4.1851 2.2722 -22.0471 2.3929 2.5203 17.6112 51.7310 18.6852 -17.3844 -17.3806 0.8759 -4.7689 -25.9353 5.7577 19.4289 2.9534 13.5100 14.2257 -0.2094 8.3989 -3.0639 -6.5731 -0.1731 -13.8810 1.6068 3.2316 -11.3061 1.1988 9.1053 -47.9575 -11.5934 11.3210 1.6045 3.0925 -0.1231 10.2656 1.0008 1.6010 42.4092 -36.1170 -12.8408 8.2373 24.2450 -29.7896 -14.4098 0.2721 -3.2945 6.9788 15.1396 10.5956 3.2705 -6.3328 0.3375 0.0000 -0.0000 0.0000 -8.9089 22.5427 2.6866 3.3230 12.8186 -8.1730 -0.7680 15.4553 6.1593 0.0000 -8.8923 -0.0000 
0.0606 8.3601 -0.2979 81.5588 9.9756 -2.4193 0.0000 -0.0000 0.0000 -1.7064 -46.8827 -3.0296 9.8552 36.3550 7.2438 0.6659 -8.6663 -2.8701 0.0000 0.6967 -0.0000 0.0000 -0.0000 0.0000 2.5685 2.0293 1.8580 4.6566 4.0305 3.0217 -22.8558 2.2071 1.5295 16.8940 49.9383 19.3625 -11.3350 -11.2620 -0.7396 -5.4201 -13.0522 12.3280 19.1855 2.8491 13.1254 12.7192 2.1368 6.8334 -2.9527 -6.7030 -0.0847 -14.1636 1.9578 3.0073 -11.6133 1.5197 8.8697 -48.6787 -12.5444 10.8474 0.8474 3.1993 1.2346 8.1940 3.2225 -0.5849 50.2172 -39.8166 -17.7493 6.8360 20.0996 -35.4200 -14.6845 0.8950 -4.9693 3.1340 14.1399 7.3652 2.8687 -6.8014 0.0180 0.0000 -0.0000 0.0000 -6.6772 19.9010 4.0229 -4.2326 29.0308 -11.3125 -2.1373 14.9536 6.9391 0.0000 -7.4349 0.0000 
0.0850 8.2687 -0.3501 80.9849 8.2563 -2.9017 0.0000 -0.0000 0.0000 0.2979 -40.3702 -3.1012 5.8791 31.4322 4.1248 0.7074 -6.3685 -1.5277 -0.0000 -0.9044 -0.0000 0.0000 -0.0000 0.0000 1.9390 2.4211 1.9667 3.3780 4.7996 3.6497 -22.6192 1.8458 -0.0975 11.9530 46.4184 15.5506 -5.1855 -4.6087 -1.7140 -5.2936 -1.4540 17.6962 17.7735 2.3082 11.1132 9.0975 5.6228 3.8366 -2.9922 -6.6569 -0.1161 -13.6185 2.0337 2.5785 -11.0815 1.5935 8.4219 -47.2130 -13.0366 10.3398 0.7935 3.2675 2.4986 8.7552 6.9366 -1.2206 48.0860 -38.8956 -16.3720 5.1511 14.2382 -38.2701 -15.3437 1.6776 -8.1654 -2.8314 11.8186 2.3844 2.3635 -7.3976 -0.3819 0.0000 -0.0000 0.0000 -4.0486 13.4390 4.8068 -16.4424 50.9435 -20.6590 -6.7896 11.6586 6.3917 -0.0000 -9.4665 -0.0000 
0.0460 8.1699 -0.4116 80.8660 6.5813 -2.5517 0.0000 -0.0000 0.0000 1.3660 -34.4644 -4.6047 7.7484 33.4984 4.5245 0.2170 -6.4706 5.4814 0.0000 -3.5585 -0.0000 0.0000 -0.0000 0.0000 0.4092 3.1647 1.8577 0.4679 6.3243 3.3941 -22.1721 1.4530 -2.1876 5.0147 40.3925 10.6469 -0.2883 0.8523 -1.9748 -4.6097 6.8941 20.6878 15.4622 1.2764 7.7535 2.9481 10.1366 -1.2825 -3.1441 -6.4797 -0.2368 -12.6344 1.3621 1.9914 -10.0930 0.9613 7.8074 -45.0241 -12.2768 10.3804 0.5748 3.3122 2.8955 11.3429 10.7659 0.3743 37.9454 -33.5767 -10.2280 4.7300 9.0963 -38.9724 -16.1980 2.2157 -11.3418 -8.3348 8.5654 -2.1943 1.8349 -8.0297 -0.7983 0.0000 -0.0000 0.0000 -2.9973 4.6529 3.1571 -41.5254 69.7604 -43.5368 -12.0625 8.6578 3.4235 -0.0000 -11.6443 -0.0000 
-0.0628 8.0695 -0.4903 81.7126 6.0650 -1.4328 0.0000 -0.0000 0.0000 0.9037 -30.2978 -7.3237 11.3038 41.0796 7.0243 -1.0197 -18.0551 6.1447 -0.0000 -0.8432 0.0000 0.0000 -0.0000 0.0000 -1.3650 4.0160 1.5760 -2.8127 8.0399 2.2526 -22.6537 1.0468 -4.5757 -1.8720 32.1701 7.7614 2.5539 4.0294 -1.9118 -3.8231 12.4699 21.7029 13.3263 0.1244 4.5132 -4.5072 14.3708 -8.0552 -3.3196 -6.2758 -0.3766 -11.7400 -0.0816 1.3510 -9.1833 -0.4162 7.1327 -43.6604 -10.5322 11.1638 -0.8813 3.4357 2.4997 14.3124 14.1844 3.7164 27.1449 -26.0108 -4.6731 5.4373 6.9495 -39.0789 -17.5867 2.5676 -12.9577 -11.0386 6.4356 -4.4235 1.4270 -8.5231 -1.1180 0.0000 -0.0000 0.0000 -2.6884 -7.6236 -0.2517 -104.0164 76.5551 -103.3355 -13.4390 5.1894 -1.4683 0.0000 -11.6754 -0.0000 
-0.2038 8.0239 -0.5504 82.3886 6.6223 -0.1840 0.0000 -0.0000 0.0000 0.2436 -23.4148 -10.2998 12.0565 41.4543 7.9417 -1.3810 -26.0463 6.8149 0.0000 -2.9382 -0.0000 0.0000 -0.0000 0.0000 -2.6937 4.6748 1.1220 -5.3586 9.3285 1.0537 -24.5217 0.5061 -7.0077 -7.7170 23.7067 7.5326 2.7315 4.2273 -1.9027 -2.9678 16.4737 21.6712 12.1777 -0.5646 2.7400 -10.7092 16.8746 -14.1439 -3.4845 -6.0850 -0.5082 -11.1287 -1.5126 0.7730 -8.5599 -1.7888 6.5262 -43.2429 -9.0977 12.0917 -3.6260 3.6420 2.0789 16.1174 18.2504 7.2058 20.1011 -19.9481 -1.7952 7.1126 8.1660 -38.8608 -20.4087 2.9915 -12.8445 -10.4386 6.8188 -3.9812 1.2841 -8.6973 -1.2297 0.0000 -0.0000 0.0000 -1.4793 -22.7242 -3.2783 -142.0727 71.2853 -138.8603 -10.4228 0.9543 -5.3296 -0.0000 -9.6154 0.0000 
-0.3016 8.0758 -0.5562 81.4814 7.3016 0.2475 0.0000 -0.0000 0.0000 1.0291 -12.0034 -12.0465 9.4751 33.8155 6.0642 -1.1084 -30.3721 7.5943 -0.0000 -4.4793 -0.0000 0.0000 -0.0000 0.0000 -3.5831 4.9185 0.8055 -7.1398 9.8283 0.7798 -27.0821 -0.1813 -9.0799 -11.5915 16.9593 8.7119 -0.2453 0.9005 -1.9751 -1.8569 19.4117 21.3631 11.9416 -0.6802 2.4318 -13.9414 17.1770 -17.4442 -3.6863 -5.8528 -0.6694 -10.5079 -1.9796 0.2763 -7.9409 -2.2290 6.0154 -42.4153 -8.9800 12.3569 -6.4374 3.8920 2.2511 16.0739 24.2778 9.0025 16.8152 -16.8274 -0.6979 8.7454 11.6885 -38.0404 -25.7222 3.5304 -12.3790 -7.8440 8.9730 -1.7698 1.4913 -8.4451 -1.0677 0.0000 -0.0000 0.0000 0.7182 -37.3132 -3.8490 -150.1338 70.7113 -145.3397 -7.1546 -3.0594 -5.7244 0.0000 -6.5584 -0.0000 
-0.2958 8.2150 -0.5061 78.6504 7.6471 -0.2396 0.0000 -0.0000 0.0000 3.0576 10.7160 -12.2701 2.7873 5.7578 1.8032 -0.1468 -24.8527 8.9859 -0.0000 -3.4901 0.0000 0.0000 -0.0000 0.0000 -4.5307 4.6882 0.4709 -9.0502 9.5467 1.8177 -28.9609 -0.7415 -10.3931 -12.6477 12.4743 9.9900 -6.5882 -6.1539 -1.5540 -0.7663 21.0017 21.2843 11.9861 -0.6318 2.5388 -14.8967 15.4425 -18.1776 -3.9667 -5.5321 -0.8939 -9.4737 -1.3572 -0.1649 -6.9210 -1.6106 5.5612 -39.8585 -10.1223 11.5982 -7.8561 4.1031 2.9074 13.4224 31.9054 7.5013 14.9556 -14.9862 -0.1531 9.1243 16.7187 -36.1680 -34.0033 3.7823 -12.8327 -5.0339 11.5016 0.8400 2.0269 -7.7992 -0.6473 0.0000 -0.0000 0.0000 2.7071 -47.5557 -1.1020 -140.2580 78.0082 -134.9649 -7.2835 -6.3826 -2.8012 0.0000 -3.8104 -0.0000 
-0.2253 8.3155 -0.4312 75.2776 8.1488 -2.4167 0.0000 -0.0000 0.0000 7.2366 18.2566 -10.3996 1.8079 5.0558 1.2540 1.5487 -12.9794 5.9590 -0.0000 -10.7707 0.0000 0.0000 -0.0000 0.0000 -6.0489 4.2311 1.3183 -11.8144 8.8058 3.6679 -29.1810 -0.8823 -10.8764 -11.3139 9.7376 10.9187 -16.1278 -16.1529 0.4899 -0.1123 20.5910 22.1033 11.9421 -0.6797 2.4328 -15.3094 12.4806 -17.9233 -4.2293 -5.2338 -1.1047 -8.0032 -0.4556 -0.4822 -5.4658 -0.7282 5.2093 -35.6869 -11.6369 10.1277 -7.4754 4.1499 3.5035 6.6753 38.9014 1.7390 12.6320 -12.6157 0.4460 8.3779 22.8048 -33.0336 -44.2215 3.3311 -13.6589 -2.7437 14.0203 3.1638 2.7444 -6.9475 -0.0806 0.0000 -0.0000 0.0000 1.9155 -53.0274 6.2555 -52.3401 82.2381 -47.7053 -10.5718 -9.2082 1.5330 0.0000 -2.3545 0.0000 
